<svg xmlns="http://www.w3.org/2000/svg" viewBox="0 0 790 681"><path d="M448 1c-1 1 1 11 3 17l7 27c12 41 24 72 39 102a777 777 0 0128 101 254 254 0 00-46 11c-34 11-62 35-108 90-8 9-9 11-7 11 3 1 11-4 23-16l21-22c31-32 48-44 72-53l40-9c8 0 7-1 8 7 3 16 7 58 8 88v27l-19 16-64 55-13 11-15 5a412 412 0 00-131 82l2 5h6l10-4c36-12 69-30 114-65l18-13 10-2a241 241 0 0177-2h5l-1 53v54l-4 21-7 45-4 24 2 7 1 7h5c4 0 5 0 9-6 8-9 8-9 8-57v-41l3-14 19-73 4-14h5l25 6-16 46-17 46 2 1c4 0 13-18 22-43 1-6 4-11 5-12l2-8 5-9 5-11 3-8 11 3c27 7 51 15 94 30 19 7 20 6 20-3s-3-24-6-36c-9-25-26-53-59-98-7-8-12-16-12-17a936 936 0 0193-179c20-33 20-34 19-37l-4-2c-3 0-1-2-31 32l-56 62c-5 5-5 6 6-19l39-93c6-12 6-16 3-16-4 0-10 3-21 10l-25 15c-25 14-36 23-49 40l-7 8-6 12c-15 28-26 40-48 46l-5 2-9-13c-14-20-27-40-36-57-8-14-9-16-15-36C491 83 465 6 462 2c-2-2-3-2-8-2l-6 1zm266 130l-56 130c-3 5-8 11-23 26l-20 19-40-53 8-3c9-4 18-10 25-17s13-15 20-30a129 129 0 0163-60l19-11c4-4 5-4 4-1zM556 244c1 2 0 2-8 3-14 2-12 3-16-13-2-13-6-31-8-35l15 20 17 25zm176-45l-5 8a1213 1213 0 00-75 147l-9-11-8-11 9-18 14-29 5-12 20-22 35-38 15-16-1 2zm-149 81l22 30 3 4-18 17-43 40-1-12a718 718 0 00-9-101l25-3c1 0 6 5 21 25zm51 30l-6 13-6-8 9-10 10-9-7 14zm-15 18l4 5-14 29-35 79-9 23c-1 0-12-1-17-3h-2v-24l1-39v-13l16-15a1521 1521 0 0051-48l5 6zm20 26l8 12-12 32-20 51-9 22c-1 1-30-4-31-5a992 992 0 0155-123l9 11zm53 73c13 19 25 42 30 55l5 27-14-4c-24-9-56-19-77-25l-20-5 37-96 2-4 13 17 24 35zm-156 1v32h-4a435 435 0 00-71 0c15-12 43-36 56-49l19-16v33zm25 47l-4 12-8 27-4 16v-22l1-29v-8l8 1 7 2zm-150 12a703 703 0 01-80 47 388 388 0 0180-47zm124 163c-1 10-2 16-4 16l-1-3 4-22a1 1 0 011-1v10zM153 290l-20 8c-19 8-21 9-41 8H75v3c0 3 4 4 20 5 16 2 20 1 41-7l22-9 7-2 2 2a286 286 0 0147 112l1 5-5 2c-7 3-12 4-20 5-7 0-8 1-8 2 0 2 2 2 15 2h17c3-1 3-1 3 2l4 39c1 30-2 46-9 53-4 4-4 4-10 4-8 0-16-3-32-13-11-6-13-6-13-2 0 5 12 15 27 21 10 4 17 5 23 4 11-2 17-9 21-26 2-8 2-11 2-36 0-20 0-30-2-40l-2-13 5-5c7-6 27-30 27-32 0-3-3-2-8 2l-20 18-6 5-3-14c-8-33-20-60-40-93l-9-13h-5l-14 3zM64 454L8 467l2 5 2 4 44-11 51-12 10-4c4-1 5-2 5-3l-2-5-56 13z"/></svg>