<svg xmlns="http://www.w3.org/2000/svg"  viewBox="0 0 256 256" preserveAspectRatio="xMidYMid meet"><path d="M4 127.5V252h250V3H4v124.5zm207.3-7.7c5.7 2.5 15.7 11.8 15.7 14.6 0 .7-3.9 3.8-8.7 6.9l-8.8 5.8-3.3-4.1c-4.1-4.9-9.7-6.8-15.4-5.1-4.7 1.4-6.8 4.4-6.8 9.5 0 5.3 4.2 9 15.6 13.9 17.6 7.6 27.2 14.6 31.4 22.7 4.2 8.2 4.2 22.8 0 30.9-6.2 12.2-24.1 19.4-42.5 17.1-11.2-1.4-18.9-4.6-25.6-10.7-3.9-3.5-10.5-12.1-9.7-12.7 1.1-.9 18-10.6 18.5-10.6.3 0 2.3 2 4.5 4.5 6.6 7.5 14.7 10.4 23.7 8.4 8.7-1.8 13-10.3 8.5-16.8-1-1.3-8.2-5.5-17.2-9.8-17.2-8.3-23.6-13.3-28-21.8-2.4-4.4-2.7-6.2-2.7-14.5 0-10.4 1.4-14.4 7.6-21.4 8.5-9.7 29.2-13 43.2-6.8zm-64.3 8.7V139h-32v92H91v-92l-16.2-.2-16.3-.3-.3-7c-.2-3.9 0-8.5.3-10.3l.6-3.2H147v10.5z"/></svg>